<?xml version="1.0" encoding="UTF-8"?>
<svg width="57px" height="24px" viewBox="0 0 57 24" version="1.1" xmlns="http://www.w3.org/2000/svg" xmlns:xlink="http://www.w3.org/1999/xlink">
    <title>74971DBB-E47F-43BC-B5AD-BBB1CD1A100A</title>
    <defs>
        <radialGradient cx="47.2585999%" cy="-11.2722258%" fx="47.2585999%" fy="-11.2722258%" r="90.904242%" gradientTransform="translate(0.472586,-0.112722),scale(1.000000,0.751504),translate(-0.472586,0.112722)" id="radialGradient-1">
            <stop stop-color="#F9AE26" offset="0%"></stop>
            <stop stop-color="#E51E38" offset="100%"></stop>
        </radialGradient>
    </defs>
    <g id="New-Web-concept" stroke="none" stroke-width="1" fill="none" fill-rule="evenodd">
        <g id="Home-1.1" transform="translate(-259.000000, -16.000000)">
            <g id="الهيدر-/الأساسي" transform="translate(-1.500000, 0.000000)">
                <g id="Logo/Primary/dark-theme" transform="translate(261.000000, 16.000000)">
                    <path d="M24.1904363,7.86755018 C24.0697962,7.86301957 23.9495075,7.85125383 23.8302162,7.83230668 C23.6734287,7.80885559 23.5194782,7.76920717 23.3708199,7.71399383 C23.2290713,7.66062775 23.0950149,7.58861628 22.9721655,7.49984756 C22.8507645,7.41325026 22.7488928,7.30199087 22.6731747,7.17330411 C22.4598818,7.42124329 22.1806988,7.60322673 21.8681994,7.6980216 C21.5261587,7.81239065 21.0848475,7.86937805 20.5442658,7.86898365 C20.5350632,7.86898365 20.5259813,7.86884949 20.5170201,7.86858116 C20.5084943,7.87042755 20.499689,7.87134992 20.4906008,7.87134992 L18.5057,7.87134992 C18.5022069,7.8717442 18.4986309,7.87194149 18.4949698,7.87194149 C18.4846137,7.87180317 18.474261,7.87160595 18.4639121,7.87134992 L18.4395356,7.87134992 C18.3983514,7.87134992 18.3603629,7.86904181 18.3256668,7.86441814 C18.0648126,7.84469615 17.8078238,7.78754538 17.5626139,7.6944722 C17.4066324,7.63527832 17.2591099,7.55571786 17.1238581,7.4578465 C16.993409,7.36793442 16.8851054,7.2493798 16.8071756,7.11118985 C16.5406196,7.41131011 16.1671269,7.62545636 15.6866972,7.75362862 C15.467262,7.80854117 15.2431604,7.84260789 15.0173588,7.85537769 C14.8054508,7.86602584 14.5573729,7.87134992 14.2731253,7.87134992 C14.2610082,7.87134992 14.2491086,7.87112523 14.2374267,7.87067581 C14.2330791,7.8711253 14.228663,7.87134992 14.2241781,7.87134992 L12.6448933,7.87134992 L10.544208,7.87134992 C10.5392305,7.87253269 10.5341473,7.8731246 10.5289583,7.8731246 L9.44032514,7.8731246 C9.39442774,8.20255738 9.29165435,8.52144766 9.13661652,8.81548645 C9.01409338,9.0399739 8.84472264,9.23529705 8.64006768,9.38812064 C8.45383404,9.52441338 8.24166574,9.62086137 8.01672788,9.67147993 C7.79444331,9.72087896 7.56739636,9.74547968 7.33972306,9.74483388 C7.14507639,9.74625582 6.95062969,9.73201262 6.75825376,9.70224126 C6.61441776,9.68028185 6.47232649,9.64805846 6.3330617,9.60581629 L6.66389767,8.45995635 C6.74704897,8.47474545 6.82725163,8.4871683 6.90450568,8.49781646 C6.98149804,8.50849343 7.05913292,8.51383016 7.13685749,8.51378869 C7.40773804,8.51378869 7.61197965,8.43491348 7.74958225,8.277163 C7.88718483,8.11941251 7.97878889,7.86602584 8.02439432,7.51700292 L8.60114582,3.08500359 L10.0630752,3.08500359 L9.59660238,6.67106606 L10.4706966,6.67106606 C10.478073,6.67039895 10.4855065,6.67000202 10.4929851,6.66988293 L12.6431574,6.67222865 C12.6433995,6.67066516 12.6491283,6.66988293 12.6619953,6.66988293 L14.2088829,6.67220062 C14.2205494,6.67083393 14.2323442,6.67005413 14.2442287,6.66988293 C14.5361428,6.66988293 14.7661357,6.66337572 14.935387,6.64858662 C15.1005673,6.63562922 15.2612431,6.58828356 15.4071673,6.50956903 C15.5001239,6.45879659 15.5817915,6.38955525 15.6471856,6.30607091 C15.7149078,6.22081236 15.7717638,6.12741294 15.8164368,6.02803573 C15.8616698,5.92828467 15.8968355,5.82424231 15.9214079,5.71746449 C15.9453901,5.61019419 15.9636716,5.51021984 15.9762524,5.41754143 L16.2764226,3.08618672 L17.727737,3.08618672 L17.396901,5.6447021 C17.357586,5.95192111 17.432088,6.19998375 17.620407,6.38888991 C17.8031461,6.57219887 18.071586,6.66656905 18.4257267,6.67200042 C18.4359206,6.67076979 18.4462353,6.67005708 18.4566377,6.66988293 L20.5077028,6.67224917 C20.5141926,6.67204771 20.5206373,6.67214257 20.527022,6.67252321 C20.7080442,6.67431746 20.8886537,6.65437087 21.0649934,6.61309275 C21.1982006,6.58298008 21.321957,6.52040103 21.4253156,6.43089097 C21.5154429,6.34685471 21.58385,6.24209692 21.6246428,6.12564383 C21.67387,5.98342166 21.7074866,5.83623781 21.7248962,5.68670315 L22.0633986,3.08382045 L23.5147128,3.08382045 L23.1815181,5.64233583 C23.142203,5.94955484 23.216705,6.19761748 23.4050239,6.38652365 C23.5933428,6.57542981 23.8726762,6.66988293 24.2430239,6.66988293 C24.2555644,6.66892537 24.2679882,6.66908041 24.2801844,6.67027668 C24.6670591,6.66612366 24.9536631,6.59658219 25.1399962,6.4616523 C25.3322468,6.32243754 25.4531405,6.06372675 25.5026775,5.68552002 L25.7196964,4.01553415 L27.1710109,4.01553415 L26.9351206,5.81448102 C26.9204547,5.92268185 26.9170946,6.03212336 26.9250953,6.1410245 C26.9305088,6.23637482 26.9564629,6.32941492 27.0011698,6.4137356 C27.0510111,6.4980099 27.1267426,6.56380694 27.2170093,6.60126148 C27.3429757,6.65208945 27.4782184,6.67567445 27.6138945,6.6704745 C27.8769122,6.6704745 28.0685728,6.60461369 28.1888769,6.47289202 C28.3091808,6.34117038 28.3948877,6.07871307 28.4459971,5.68552002 L28.6636059,4.01553415 L30.1149202,4.01553415 L29.8790301,5.81448102 C29.8644722,5.92268699 29.8609157,6.03209704 29.8684149,6.1410245 C29.8743541,6.23706269 29.9024128,6.33041124 29.950387,6.4137356 C30.0019043,6.49658861 30.0771228,6.56193996 30.1662264,6.60126148 C30.290012,6.65249449 30.423424,6.67611121 30.5572143,6.6704745 C30.8202318,6.6704745 31.0118927,6.60638839 31.1321966,6.4782161 C31.2525007,6.35004384 31.3384041,6.08581184 31.3899067,5.68552002 L31.7284092,3.08263734 L33.1797235,3.08263734 L32.7969916,6.02685259 C32.7183616,6.61210679 32.506257,7.06563942 32.1606778,7.38745036 C31.8150987,7.70926132 31.3614033,7.87075835 30.7995916,7.87194149 C30.4884761,7.88069029 30.1793019,7.82007698 29.894363,7.6944722 C29.645892,7.57615935 29.4784099,7.41367635 29.3919167,7.20702327 C29.0144924,7.65030205 28.5020211,7.87194149 27.8545027,7.87194149 C27.5437861,7.88047532 27.2350422,7.81986738 26.9504535,7.6944722 C26.7242953,7.59785977 26.5420476,7.42031542 26.4391615,7.19637512 C26.2125597,7.43661244 25.9264238,7.61217727 25.6100075,7.70512035 C25.2632489,7.81633444 24.8195789,7.87194149 24.278997,7.87194149 C24.2480866,7.87194149 24.2185622,7.87047878 24.1904363,7.86755018 Z M12.8740993,6.82814955 C12.8733905,6.8262462 12.87267,6.82436521 12.8719376,6.82250651 C12.8626438,6.79241317 12.8471558,6.76557565 12.8271597,6.7432008 C12.8674048,6.76614949 12.8930765,6.79447197 12.8740993,6.82814955 Z M5.27391477,12.4902836 C5.02478508,12.3922956 4.76573771,12.3218769 4.50137443,12.2802782 C4.24137494,12.23881 3.97853565,12.2178438 3.71527038,12.2175724 C3.56413358,12.2171481 3.41322661,12.2294166 3.26413041,12.2542494 C3.12378251,12.2763474 2.98782655,12.3206758 2.86134792,12.3855767 C2.74330605,12.4455149 2.63905491,12.5295385 2.55528042,12.632259 C2.46832468,12.7441905 2.4132923,12.8777023 2.39605453,13.0185504 C2.3732851,13.1360302 2.38286754,13.2575137 2.42377163,13.3699396 C2.47052397,13.481489 2.54285804,13.580397 2.63489335,13.6586229 C2.7558814,13.7637427 2.88915286,13.8537281 3.03177857,13.9266015 C3.19572226,14.0141531 3.39229741,14.1068315 3.62150404,14.2046367 C3.88775062,14.3200144 4.14672848,14.4515863 4.39699302,14.5986185 C4.61464879,14.7256509 4.81172004,14.8852358 4.98141093,15.0718699 C5.1404856,15.2481952 5.25425297,15.4608035 5.31283665,15.6912377 C5.3740009,15.9692695 5.3782142,16.2568684 5.3252209,16.536583 C5.27466948,16.8869694 5.14475037,17.2210769 4.94543769,17.5132556 C4.75372827,17.7906765 4.50822929,18.0264787 4.22361373,18.2065689 C3.93071486,18.3909286 3.61041349,18.5273164 3.27474546,18.6106073 C2.92769863,18.6983182 2.5711317,18.742432 2.21323964,18.7419387 C1.8471501,18.7391416 1.48181768,18.7080914 1.12047837,18.6490589 C0.738356453,18.5903901 0.363010675,18.4936849 0,18.3603756 L0.471780366,17.1109919 C0.787552656,17.2476898 1.11716966,17.3496403 1.45485271,17.4150559 C1.75157726,17.4750053 2.05328494,17.5066962 2.35595321,17.5097062 C2.77465828,17.5097062 3.1035285,17.4379298 3.34256391,17.2943768 C3.57998516,17.1532853 3.74121364,16.9122101 3.78131963,16.6383321 C3.83580238,16.3845426 3.7415452,16.1217732 3.53835274,15.960991 C3.41007215,15.8515848 3.26956324,15.7574878 3.11964767,15.6805895 C2.94902044,15.5902774 2.74595831,15.4958243 2.51046127,15.3972303 C2.24859894,15.2883538 1.99595985,15.1583761 1.75502296,15.0085726 C1.54480934,14.878472 1.35517849,14.7175608 1.19242488,14.5311802 C1.0413261,14.3564223 0.930929781,14.1500973 0.869255326,13.9271931 C0.805337903,13.6757068 0.796885208,13.4132601 0.844486857,13.1581596 C0.894184961,12.8016407 1.02669947,12.461824 1.23134676,12.1661063 C1.42377362,11.8942768 1.66862613,11.6639489 1.95140154,11.4887653 C2.23250452,11.3141574 2.53914569,11.1848108 2.86016847,11.1054316 C3.17282527,11.0270937 3.4938512,10.9873619 3.81611345,10.9870753 C4.1626423,10.9859409 4.50884169,11.0086711 4.85226106,11.0551487 C5.15103295,11.0938343 5.44519781,11.1624027 5.73036227,11.2598299 L5.27391477,12.4902836 Z M6.7016401,20.6603774 L5.21553195,20.6603774 L6.41798217,13.0676503 L7.87283487,13.0676503 L7.75960758,13.7816683 L7.7808377,13.7816683 C8.02167497,13.509542 8.31843107,13.2929914 8.65068274,13.1469199 C8.95389434,13.013126 9.2812783,12.943257 9.61252497,12.9416471 C9.94966453,12.9323392 10.2835256,13.0101571 10.5820336,13.1676246 C10.8443423,13.313503 11.0625453,13.5276858 11.2136296,13.7875839 C11.3740031,14.0706846 11.4757015,14.3833709 11.5126204,14.7068748 C11.5579223,15.0842484 11.5485866,15.4662102 11.4849033,15.8409034 C11.4238266,16.2349091 11.3097561,16.618784 11.1458112,16.9820309 C10.9943859,17.3207683 10.7894779,17.6327841 10.5389837,17.9060542 C10.3007522,18.1647572 10.0137136,18.3734688 9.69449681,18.5200979 C9.36984898,18.66837 9.01681964,18.7436781 8.66011836,18.7407514 C8.36208915,18.7496857 8.06563134,18.694204 7.79086303,18.5780712 C7.51868561,18.4624282 7.29111812,18.2615443 7.14216501,18.005437 L7.12152463,18.005437 L6.7016401,20.6603774 Z M9.99879514,15.8403119 C10.037496,15.6078029 10.0501555,15.3716819 10.0365376,15.1363504 C10.0279555,14.942113 9.98168249,14.7514202 9.900311,14.574956 C9.82851469,14.4218572 9.71479598,14.2923963 9.57242363,14.2016789 C9.40953474,14.1058043 9.22273349,14.0585992 9.03400429,14.0656192 C8.82786593,14.0648629 8.62409616,14.1097027 8.43720213,14.1969464 C8.24848167,14.2847963 8.07923653,14.4097121 7.93947383,14.5643078 C7.78970845,14.7308591 7.66782607,14.9206455 7.57856185,15.1262938 C7.47841457,15.3540792 7.40881044,15.5941764 7.37156823,15.8403119 C7.33102778,16.0761639 7.32467171,16.3166544 7.352697,16.5543299 C7.37441307,16.7514727 7.43452366,16.9424164 7.52961466,17.116316 C7.61856671,17.2724143 7.74823077,17.4012556 7.90468004,17.4890014 C8.07787734,17.5831859 8.27269113,17.6301032 8.46963703,17.6250612 C8.67168381,17.6285409 8.8714476,17.5817976 9.05110633,17.4890014 C9.22492049,17.3958862 9.37723124,17.2670866 9.49811823,17.1109919 C9.63095932,16.9388681 9.73712734,16.7476085 9.81303163,16.5436818 C9.89921374,16.3163579 9.9614732,16.0806205 9.99879514,15.8403119 Z M13.2157475,16.2810273 C13.1971992,16.4938228 13.2295473,16.7079862 13.3101036,16.9057191 C13.3825993,17.0671608 13.496069,17.2066863 13.6391704,17.310349 C13.7967292,17.4218742 13.9740717,17.5021882 14.1616672,17.5469747 C14.3784473,17.6010186 14.6011511,17.6274528 14.8245186,17.6256528 C15.0493865,17.6246906 15.2739548,17.6090799 15.4968056,17.5789192 C15.7270726,17.5491173 15.9541001,17.4980253 16.1749899,17.4262956 L16.1696823,18.5200979 C15.9082724,18.591457 15.6425389,18.6457969 15.3741427,18.6827781 C15.0745104,18.7233549 14.7724417,18.7431208 14.4700936,18.7419849 C13.9747242,18.7419849 13.5444212,18.6719328 13.1791845,18.5319292 C12.8406578,18.4100231 12.5369779,18.2069386 12.2945963,17.940365 C12.0671902,17.6791915 11.9082834,17.3652665 11.8322516,17.0269898 C11.7478168,16.6418959 11.7398014,16.2438929 11.8086626,15.8556925 C11.8704918,15.4491579 11.9981815,15.0555024 12.1866766,14.690311 C12.3638788,14.3444161 12.5992966,14.0318152 12.8825526,13.7662876 C13.1646569,13.5048678 13.4939157,13.29987 13.852651,13.1623005 C14.2326959,13.0167378 14.6365138,12.9437076 15.0433067,12.9469712 C15.3998779,12.9364983 15.7546727,13.0011893 16.0847619,13.1368633 C16.3607537,13.2551409 16.6000502,13.4455407 16.7776893,13.6882011 C16.9566741,13.9443996 17.0730384,14.2392569 17.1173711,14.5489271 C17.1720272,14.9245827 17.1668518,15.3065628 17.1020383,15.6805895 L17.0070925,16.2792526 L13.2157475,16.2810273 Z M14.8610816,13.9502641 C14.5188721,13.9471738 14.1881464,14.0739599 13.9352126,14.3052027 C13.6609582,14.5540655 13.4672701,14.8796025 13.3791015,15.2398742 L15.7763355,15.2398742 C15.8439573,14.854963 15.7938307,14.5434059 15.6259555,14.3052027 C15.4580803,14.0669994 15.2031223,13.9486866 14.8610816,13.9502641 Z M18.7638846,16.2810273 C18.7454999,16.4938709 18.7780513,16.7080413 18.8588304,16.9057191 C18.9311146,17.0671204 19.0443845,17.2066503 19.1873075,17.310349 C19.3448663,17.4218742 19.5222088,17.5021882 19.7098043,17.5469747 C19.9265844,17.6010186 20.1492882,17.6274528 20.3726557,17.6256528 C20.5975236,17.6246906 20.8220919,17.6090799 21.0449427,17.5789192 C21.2752097,17.5491173 21.5022372,17.4980253 21.723127,17.4262956 L21.7178194,18.5200979 C21.4564233,18.5915149 21.190686,18.6458557 20.9222798,18.6827781 C20.6226475,18.7233549 20.3205788,18.7431208 20.0182307,18.7419849 C19.5228613,18.7419849 19.0925583,18.6719328 18.7273216,18.5319292 C18.3887516,18.4101094 18.0850522,18.2070119 17.8427335,17.940365 C17.6149275,17.6793806 17.4557901,17.3654005 17.379799,17.0269898 C17.2953642,16.6418959 17.2873488,16.2438929 17.35621,15.8556925 C17.4182862,15.4492168 17.5459632,15.0556007 17.734224,14.690311 C17.9114262,14.3444161 18.146844,14.0318152 18.4301,13.7662876 C18.7122797,13.5027723 19.0421843,13.2959389 19.4019676,13.1569765 C19.7820124,13.0114137 20.1858304,12.9383835 20.5926233,12.9416471 C20.9491758,12.9330263 21.3035658,12.9995305 21.632899,13.1368633 C21.9088908,13.2551409 22.1481873,13.4455407 22.3258264,13.6882011 C22.5048112,13.9443996 22.6211755,14.2392569 22.6655083,14.5489271 C22.7201341,14.9254326 22.7143605,15.3082801 22.6484062,15.6829558 L22.5534604,16.2816188 L18.7638846,16.2810273 Z M20.4103981,13.9502641 C20.0683916,13.9473234 19.737903,14.0740994 19.4851189,14.3052027 C19.210478,14.5538464 19.0165463,14.8794476 18.928418,15.2398742 L21.325652,15.2398742 C21.3932739,14.854963 21.3431472,14.5434059 21.175272,14.3052027 C21.0073968,14.0669994 20.7524389,13.9486866 20.4103981,13.9502641 Z M26.6974613,14.1076202 C26.6300454,14.0934246 26.561938,14.082762 26.4934161,14.0756757 C26.4244183,14.0691685 26.3518821,14.0656192 26.2752177,14.0656192 C26.095118,14.0653645 25.9164057,14.0972124 25.7474135,14.1596779 C25.5669358,14.2291314 25.4034333,14.3366573 25.2679666,14.4749816 C25.1048553,14.6437084 24.9742919,14.8412674 24.882876,15.0576724 C24.7637324,15.3379326 24.6818449,15.6326921 24.6393194,15.9343706 L24.2153068,18.6123819 L22.7286089,18.6123819 L23.6067101,13.0676503 L25.063332,13.0676503 L24.9453869,13.7923165 L24.9660274,13.7923165 C25.3198625,13.2255979 25.8462908,12.9420415 26.5453121,12.9416471 C26.6154893,12.9416471 26.6844874,12.9416471 26.7540749,12.9469712 C26.8236624,12.9522952 26.8885323,12.9558446 26.9504535,12.9629434 L26.6974613,14.1076202 Z M31.7637927,15.8296637 C31.7009301,16.257073 31.5663376,16.6707105 31.3657279,17.0530186 C31.1843843,17.3984155 30.9420044,17.7078973 30.650391,17.9663938 C30.364061,18.2168142 30.0333899,18.4110596 29.6755747,18.539028 C29.2940311,18.6742316 28.8919152,18.7416934 28.4872779,18.7383851 C28.0993795,18.7463075 27.7136375,18.6786022 27.3514667,18.539028 C27.04239,18.4171511 26.7693972,18.2182324 26.558286,17.9610697 C26.3471235,17.6948494 26.2029078,17.3815767 26.1378117,17.0476945 C26.0610584,16.6455158 26.059059,16.2325713 26.1319144,15.8296637 C26.1945972,15.406545 26.3267145,14.9967635 26.5229025,14.616957 C26.8738192,13.9262798 27.4766295,13.3978646 28.2059789,13.1415958 C28.5909249,13.0052855 28.9966846,12.9376149 29.4048909,12.9416471 C29.7928512,12.9336113 30.1786521,13.0015278 30.5407021,13.1415958 C31.1769673,13.3833131 31.6391023,13.9435611 31.756716,14.6157739 C31.8327873,15.0165914 31.8351856,15.4279811 31.7637927,15.8296637 Z M30.2770947,15.8296637 C30.3175068,15.5921344 30.3276133,15.3504111 30.3071708,15.1103216 C30.2940327,14.9157703 30.2403942,14.7261404 30.149714,14.5536596 C30.0653943,14.404632 29.9417364,14.2818168 29.7923405,14.1987211 C29.6184722,14.106209 29.4235018,14.0609344 29.2267938,14.0673938 C28.8201137,14.0574836 28.4304723,14.2311976 28.1652878,14.5406452 C27.8900827,14.8561461 27.7084473,15.2866078 27.6203817,15.83203 C27.5331023,16.3841566 27.5761521,16.8179704 27.7495314,17.1334713 C27.9229108,17.4489722 28.2287817,17.6100749 28.6671442,17.6167793 C29.1149425,17.6096805 29.4736922,17.4485779 29.7433932,17.1334713 C30.0130944,16.8183648 30.1909949,16.3837623 30.2770947,15.8296637 Z M3.52184043,8.57767763 C3.97710849,8.57767763 4.32268762,8.50471806 4.55857779,8.35879884 C4.79087733,8.22084525 4.94408027,7.98044477 4.97138561,7.711036 C4.81275849,7.76842585 4.64877413,7.80964887 4.48191348,7.83408138 C4.29651948,7.86017969 4.10947029,7.87263584 3.92226402,7.87134992 C3.59579874,7.87564212 3.27055177,7.83057185 2.95747317,7.73765638 C2.68953097,7.65920337 2.4443681,7.51716614 2.24272592,7.32356142 C2.04715797,7.12790936 1.90588237,6.8844431 1.83286672,6.61723372 C1.74912571,6.33131102 1.73241682,5.99609126 1.78274006,5.6115745 C1.82699518,5.27481501 1.92183688,4.94672054 2.0640391,4.63845131 C2.20574932,4.32768241 2.4016674,4.04480893 2.64255979,3.80316258 C2.89429616,3.55368854 3.19190993,3.35559826 3.51889181,3.21988023 C3.88832053,3.06840989 4.28455786,2.99374537 4.6835996,3.00040991 C4.98656032,2.99734924 5.2876603,3.04822315 5.57290559,3.15066722 C5.83500561,3.24483264 6.07391361,3.39431315 6.27349943,3.58901633 C6.47453766,3.7921271 6.62172034,4.04246706 6.7016401,4.31723191 C6.79367993,4.64804849 6.81379126,4.99484009 6.76061265,5.33413086 L6.48698004,7.43240925 C6.44633569,7.81341784 6.33131464,8.18267303 6.14847763,8.51911277 C5.98734092,8.80481013 5.76373559,9.05014734 5.49447209,9.23668019 C5.21348544,9.42484537 4.8992177,9.55736983 4.56860312,9.6271126 C4.18839213,9.70884891 3.80039363,9.74852352 3.41156178,9.74542545 C3.18332538,9.74441257 2.95540015,9.7284061 2.72924941,9.69750875 C2.50663281,9.66854811 2.28574975,9.62747246 2.06757746,9.57446339 L2.42848943,8.4392516 C2.58771532,8.47533701 2.75401789,8.50728148 2.92857661,8.53567657 C3.1248946,8.56555755 3.32328467,8.57960286 3.52184043,8.57767763 Z M3.30659064,5.47374001 C3.25351535,5.88034183 3.31248789,6.18184242 3.48350827,6.37824176 C3.65452867,6.57464109 3.92108457,6.67323513 4.283176,6.67402387 C4.4455356,6.67582254 4.60774026,6.66335201 4.76793033,6.63675533 C4.89100744,6.61511609 5.01225468,6.58406707 5.13061149,6.54387974 L5.27391477,5.44120398 C5.29497387,5.28871537 5.29893006,5.1343396 5.28570928,4.98096699 C5.27458202,4.84729285 5.23920771,4.71678168 5.18132787,4.59585869 C5.1255054,4.48224628 5.03803511,4.38731122 4.9295151,4.32255599 C4.8036712,4.2516791 4.66096626,4.21650512 4.51670729,4.22080694 C4.38261769,4.22179053 4.24964775,4.24538779 4.12336041,4.29061152 C3.98806208,4.33771653 3.86396763,4.41244565 3.75891006,4.51008187 C3.64093659,4.62190979 3.54404554,4.75417264 3.47289321,4.90051426 C3.38550256,5.08076541 3.32926858,5.27459736 3.30659064,5.47374001 Z M14.417608,9.49874317 C14.4682808,9.05897051 14.8438554,8.72986232 15.2850941,8.7385831 C15.5056515,8.7385831 15.6760821,8.8099652 15.7963861,8.95272937 C15.9166901,9.09549351 15.9622955,9.27749812 15.9332024,9.49874317 C15.9108888,9.71256099 15.8109804,9.91068483 15.6524931,10.0554051 C15.497984,10.197103 15.295073,10.2737761 15.0857669,10.2695514 C14.8581329,10.2695514 14.6825913,10.1981693 14.5591421,10.0554051 C14.4356929,9.91264096 14.3885149,9.72708695 14.417608,9.49874317 Z M16.3047295,9.49874317 C16.3548567,9.05892378 16.730408,8.72961202 17.1716259,8.7385831 C17.3921832,8.7385831 17.5626139,8.8099652 17.6829179,8.95272937 C17.8032219,9.09549351 17.8488273,9.27749812 17.8197342,9.49874317 C17.7973621,9.71241521 17.6977058,9.91045524 17.5396146,10.0554051 C17.3848281,10.1970349 17.1817655,10.2736855 16.9722987,10.2695514 C16.7446647,10.2695514 16.569123,10.1981693 16.4456739,10.0554051 C16.3222247,9.91264096 16.2760295,9.72708695 16.3070884,9.49874317 L16.3047295,9.49874317 Z M21.2006302,9.46916494 C21.251303,9.02939231 21.6268776,8.7002841 22.0681164,8.70900489 C22.2886737,8.70900489 22.4591044,8.780387 22.5794083,8.92315114 C22.6997123,9.06591529 22.7453177,9.24791992 22.7162247,9.46916494 C22.693911,9.68298276 22.5940026,9.88110663 22.4355153,10.0258269 C22.2810062,10.1675248 22.0780952,10.2441979 21.8687892,10.2399731 C21.6411551,10.2399731 21.465417,10.168591 21.3415746,10.0258269 C21.2177323,9.88306276 21.1707508,9.69750875 21.2006302,9.46916494 Z" id="base" fill="#0D0630"></path>
                    <g id="speero-logo---icon.svg" transform="translate(37.718894, 0.000000)">
                        <path d="M17.7917164,12.5468988 C17.7506596,13.4697009 17.5839585,14.3822931 17.2963588,15.2586955 C16.8274203,16.7428092 16.1075007,18.1121157 15.4800477,18.9576666 C14.8900218,18.4967617 14.325039,18.0677012 13.7850992,17.670485 C13.4036739,17.388076 13.0329813,17.1215892 12.6705447,16.8676725 C9.2459726,14.4651011 6.63131018,13.234066 3.17619105,11.9326383 C0.776183585,10.9002113 -0.0436332092,7.95461016 0.00177456884,5.9257907 C0.0182864882,5.19504696 0.147079459,4.58497649 0.355129642,4.22295668 C5.52170919,5.30398812 10.3448408,7.40236233 14.9995509,10.5331635 C15.456931,10.8398747 15.911284,11.1563627 16.3626098,11.4826275 C16.8414555,11.8262111 17.3178243,12.1809682 17.7917164,12.5468988 Z M14.355586,20.3420572 C14.1673528,20.5954643 13.9650282,20.8377634 13.7495986,21.0677729 C13.0272021,21.8387411 12.2032573,22.4236713 11.3058345,22.9524549 C10.7799299,23.2616801 9.9023214,23.6748185 9.9023214,23.6748185 C9.59024612,23.529005 9.28890357,23.3865435 8.99416584,23.24492 C8.64521391,23.0773182 8.31112279,22.9097164 7.99189233,22.7421147 C6.80716213,22.1312062 5.82470291,21.5513041 5.01231649,20.9680499 C4.12149844,20.3286491 3.43542818,19.6867343 2.91447714,18.9987291 C1.90064529,17.6579148 1.50518482,16.1545269 1.42345082,14.1617419 C1.41189248,13.8759808 1.4069389,13.5793257 1.4069389,13.2726145 C4.89673306,14.5639861 7.91923986,15.8528437 11.7153301,18.4330731 C12.0637316,18.6693915 12.4187379,18.9168835 12.7803489,19.1755489 C13.291668,19.5409208 13.816747,19.9297569 14.355586,20.3420572 Z M17.353325,8.87390589 L16.8885144,8.59652494 C16.3793969,8.2937244 15.8807369,8.00405269 15.3925346,7.72750976 C11.0532022,5.26292566 7.37517214,3.73858756 1.79744579,2.65252805 C1.6323266,2.61956637 1.46445542,2.58744269 1.29383225,2.55615703 L1.3252049,2.5150946 C1.63619579,2.10894153 1.98633119,1.73529459 2.37040939,1.3997048 C4.68207809,-0.59559432 7.2983917,-0.0299383342 10.0550566,0.508901369 C11.7725477,0.858485852 13.4619904,1.3374768 15.1093551,1.94189653 C15.9299975,2.23855167 16.5302058,2.4874403 16.7960477,2.6005715 L16.9487829,2.6667742 C17.022261,2.93158501 17.0866575,3.18969174 17.1419724,3.44277043 C17.5291769,5.19756097 17.4961531,6.72608915 17.353325,8.87390589 Z" id="icon" fill="url(#radialGradient-1)"></path>
                        <path d="M11.2704895,19.2665803 C11.2701213,19.2663281 11.2697531,19.266076 11.2693849,19.2658239 C8.55901513,17.4067517 5.65112949,15.8632023 2.60062729,14.6643172 C2.40413545,14.5872204 2.20764361,14.5109616 2.01032617,14.4372168 C1.83860222,14.3726901 1.66770385,14.3081634 1.49515429,14.2461508 C1.48359595,13.9603897 1.47864237,13.6637346 1.47864237,13.3570234 C4.96843651,14.648395 7.99094335,15.9372527 11.7878592,18.517482 C12.1357103,18.7538004 12.4907165,19.0012924 12.852878,19.2599578 C12.6741882,19.5077459 12.490006,19.7519103 12.3003315,19.9924511 C12.300681,19.9927059 12.3010304,19.9929607 12.3013799,19.9932156 C11.3401935,21.216513 10.2558123,22.3346112 9.06586929,23.3293289 L8.06359578,22.8265236 C9.2555863,21.7603981 10.3307728,20.5668432 11.2704895,19.2665803 Z M15.2051687,2.17063282 L16.8842631,2.82325188 C16.9164613,3.03443011 16.9445316,3.25315043 16.9668227,3.45343453 C16.9891138,3.65371867 17.0097537,3.85400278 17.0262656,4.05596292 C17.0829565,4.70402311 17.111302,5.36325676 17.111302,6.03366385 C17.111302,6.9186361 17.0603644,7.80285255 16.9585667,8.68177187 C16.4499996,8.3817647 15.9513397,8.09209295 15.4625868,7.81275669 C15.5088202,7.22615047 15.5319369,6.63311954 15.5319369,6.03366385 C15.5313429,5.15595524 15.4803446,4.27902802 15.3792016,3.40734404 C15.3790336,3.40586502 15.3788651,3.40438586 15.3786966,3.40290661 L15.261967,3.36041556 C13.6146023,2.75599583 11.9251596,2.27700488 10.2076685,1.9274204 C7.4510036,1.38858069 4.83468999,0.822924707 2.52302127,2.81822382 L2.48339266,2.8534202 L1.55046922,2.66905824 C1.84219169,2.29741266 2.16781958,1.95454338 2.52302127,1.64501141 C4.83138759,-0.350287706 7.4510036,0.215368279 10.2076685,0.754207982 C11.9054536,1.10069725 13.5757591,1.57377871 15.2050009,2.16960496 C15.2050568,2.16994758 15.2051128,2.1702902 15.2051687,2.17063282 Z M15.0684781,10.6165193 C15.5240255,10.9222177 15.9776528,11.2382187 16.4293597,11.5645224 C15.8829312,13.7474116 15.013904,15.8336947 13.8518491,17.7523799 C13.4704238,17.4699709 13.0997312,17.20097 12.7372946,16.9495674 C13.445243,15.6648963 14.0259992,14.3121621 14.4710461,12.9112026 C10.4997356,9.87826922 5.99814946,7.63671472 1.20454451,6.30517874 L1.08813548,6.27333439 C0.904027583,6.22221584 0.71991968,6.17193531 0.534160591,6.1241688 C0.380599741,6.0847824 0.225387699,6.04539597 0.071001253,6.00768559 C0.0875131723,5.27694184 0.216306143,4.66603338 0.424356326,4.30485156 C5.59093587,5.385883 10.4140675,7.48425722 15.0687775,10.6150583 C15.0686778,10.6155453 15.0685779,10.6160323 15.0684781,10.6165193 Z M15.261967,2.19055518 C16.0239921,2.4662601 16.5944789,2.70006457 16.8867399,2.82325188 L15.2050009,2.16960496 L15.261967,2.19055518 Z" id="light" fill-opacity="0.25" fill="#FFFFFF" fill-rule="nonzero" style="mix-blend-mode: overlay;"></path>
                    </g>
                </g>
            </g>
        </g>
    </g>
</svg>